<?xml version="1.0" encoding="utf-8"?>
<!-- Generator: Adobe Illustrator 21.1.0, SVG Export Plug-In . SVG Version: 6.00 Build 0)  -->
<svg version="1.1" id="Layer_1" xmlns="http://www.w3.org/2000/svg" xmlns:xlink="http://www.w3.org/1999/xlink" x="0px" y="0px"
	 viewBox="0 0 841.9 98.7" style="enable-background:new 0 0 841.9 98.7;" xml:space="preserve">
<style type="text/css">
	.st0{fill-rule:evenodd;clip-rule:evenodd;}
	.st1{fill-rule:evenodd;clip-rule:evenodd;fill:#D71920;}
</style>
<path class="st0" d="M758.5,63.9h15.1c0,0.7,0.1,1.5,0.2,2.3c0.2,0.8,0.4,1.6,0.8,2.4c0.8,1.7,2.4,3.3,4.6,4.8
	c2.2,1.5,5.7,2.2,10.4,2.2c0.3,0,0.7,0,1.1,0c0.4,0,0.7,0,1.1-0.1c3.4-0.1,6.5-0.8,9.3-2.1c2.8-1.3,4.2-3.6,4.2-7
	c0-2.6-1.1-4.5-3.4-5.6c-2.2-1.1-5.2-2.1-8.8-2.9c-0.3-0.1-0.5-0.1-0.8-0.2c-0.3-0.1-0.5-0.1-0.8-0.2l-8.1-1.9
	c-0.1,0.1-0.1,0.1-0.2,0.1c0,0-0.1,0-0.1-0.1c-6.1-1.3-11.5-3.2-16.4-5.6c-4.9-2.4-7.3-7.5-7.3-15.3c0-1.2,0.1-2.5,0.4-3.9
	c0.3-1.4,0.7-2.9,1.3-4.4c1.5-3.4,4.2-6.5,8.3-9.4c4.1-2.9,10.4-4.3,18.9-4.3c8.4,0,14.7,1.5,18.9,4.6c4.3,3.1,7.2,6.5,8.7,10.2
	c0.6,1.5,1,2.9,1.3,4.3c0.3,1.4,0.4,2.7,0.4,3.9l-15.1-0.1c-0.1-0.5-0.2-1.2-0.4-2c-0.2-0.8-0.5-1.7-1-2.5c-0.8-1.5-2.2-2.9-4.4-4.2
	c-2.1-1.3-5.4-1.9-9.7-1.9c-0.4,0-0.9,0-1.3,0c-0.5,0-0.9,0.1-1.3,0.2c-2.6,0.3-5,1.1-7.2,2.3c-2.1,1.3-3.2,3.3-3.2,6
	c0,2.1,0.5,3.6,1.6,4.6c1.1,1,2.3,1.7,3.7,2.1c0.4,0.2,0.9,0.4,1.3,0.5c0.5,0.1,0.9,0.2,1.3,0.3l18.4,4.2c5.1,1.3,9.7,3.2,13.7,5.8
	c4,2.6,6,7.1,6,13.5c0,6.2-1.6,11-4.9,14.2c-3.3,3.3-6.9,5.5-10.8,6.9c-2.8,0.9-5.5,1.5-8.1,1.8c-2.6,0.3-4.5,0.4-5.9,0.4
	c-9.7,0-16.9-1.6-21.4-4.7c-4.6-3.1-7.6-6.6-9.1-10.4c-0.6-1.5-1-3.1-1.3-4.6C758.6,66.7,758.5,65.3,758.5,63.9L758.5,63.9
	L758.5,63.9z M747.7,14.4v12.7h-39.9v15h36.7v12.6h-36.7v18.5h41.7v12.6h-57.1V14.4H747.7L747.7,14.4z M644,14.4V73h37.5v12.9h-53.2
	V14.4H644L644,14.4z M582.4,30.6l-9.6,28.3H592l-9.3-28.3H582.4L582.4,30.6z M568.6,71.2l-5.2,14.7h-16.6l26.8-71.5h18.2l26.6,71.5
	h-17.1l-4.9-14.7H568.6L568.6,71.2z M478.9,63.9h15.1c0,0.7,0.1,1.5,0.3,2.3c0.2,0.8,0.4,1.6,0.8,2.4c0.9,1.7,2.4,3.3,4.6,4.8
	c2.2,1.5,5.7,2.2,10.4,2.2c0.3,0,0.7,0,1.1,0c0.4,0,0.7,0,1.1-0.1c3.4-0.1,6.5-0.8,9.3-2.1c2.8-1.3,4.2-3.6,4.2-7
	c0-2.6-1.1-4.5-3.4-5.6c-2.3-1.1-5.2-2.1-8.8-2.9c-0.3-0.1-0.5-0.1-0.8-0.2c-0.3-0.1-0.5-0.1-0.8-0.2l-8.1-1.9
	c-0.1,0.1-0.1,0.1-0.2,0.1c0,0-0.1,0-0.1-0.1c-6-1.3-11.5-3.2-16.4-5.6c-4.8-2.4-7.3-7.5-7.3-15.3c0-1.2,0.1-2.5,0.4-3.9
	c0.3-1.4,0.7-2.9,1.3-4.4c1.4-3.4,4.2-6.5,8.3-9.4c4.1-2.9,10.4-4.3,18.9-4.3c8.3,0,14.7,1.5,18.9,4.6c4.3,3.1,7.2,6.5,8.7,10.2
	c0.6,1.5,1,2.9,1.3,4.3c0.3,1.4,0.4,2.7,0.4,3.9l-15.1-0.1c-0.1-0.5-0.2-1.2-0.4-2c-0.2-0.8-0.5-1.7-1-2.5c-0.8-1.5-2.2-2.9-4.4-4.2
	c-2.1-1.3-5.4-1.9-9.7-1.9c-0.4,0-0.9,0-1.3,0c-0.5,0-0.9,0.1-1.3,0.2c-2.6,0.3-5,1.1-7.2,2.3c-2.1,1.3-3.2,3.3-3.2,6
	c0,2.1,0.5,3.6,1.6,4.6c1.1,1,2.3,1.7,3.6,2.1c0.4,0.2,0.9,0.4,1.3,0.5c0.5,0.1,0.9,0.2,1.3,0.3l18.4,4.2c5.1,1.3,9.7,3.2,13.7,5.8
	c4,2.6,6,7.1,6,13.5c0,6.2-1.6,11-4.9,14.2c-3.3,3.3-6.9,5.5-10.8,6.9c-2.8,0.9-5.5,1.5-8.1,1.8c-2.6,0.3-4.5,0.4-5.9,0.4
	c-9.7,0-16.9-1.6-21.4-4.7c-4.6-3.1-7.6-6.6-9.1-10.4c-0.6-1.5-1-3.1-1.3-4.6C479,66.7,478.9,65.3,478.9,63.9L478.9,63.9L478.9,63.9
	z M441.7,37.8h-15.7c-0.2-0.6-0.4-1.3-0.7-2.2c-0.3-0.9-0.7-1.7-1.2-2.6c-1-1.9-2.6-3.6-4.8-5.1c-2.2-1.6-5.5-2.3-9.9-2.3
	c-0.9,0-1.8,0.1-2.8,0.2c-1,0.1-2,0.4-3,0.7c-3.2,1.1-6.2,3.4-8.9,7c-2.7,3.6-4,9.3-4,17.1c0,6.4,1.4,12.1,4.3,17
	c2.9,4.9,7.7,7.4,14.4,7.4c4.3,0,8-1.1,10.9-3.4c2.9-2.3,4.8-5.6,5.8-10l15.7-0.1c-1.6,7.8-5.1,14.2-10.5,19.1
	c-5.4,4.9-12.8,7.3-22.3,7.3c-10.1,0-18.3-3.2-24.7-9.5c-6.4-6.3-9.7-15.6-9.7-28c0-12.5,3.3-21.9,10-28.2
	c6.7-6.3,14.9-9.5,24.6-9.5c8.8,0,15.6,1.9,20.5,5.6c4.9,3.7,8.3,7.8,10.2,12.3c0.5,1.3,0.9,2.5,1.2,3.7
	C441.4,35.5,441.6,36.7,441.7,37.8L441.7,37.8L441.7,37.8z M329.5,55.9v30.1h-15.7V14.4h53.6v12.7h-37.8v16.1h33.1v12.7H329.5
	L329.5,55.9z M253.6,26.8v46.8h15.3c6.1,0.1,10.5-2.3,13-7c2.5-4.7,3.9-9.9,4-15.6c0-0.3,0-0.5,0-0.8c0-0.2,0-0.4,0-0.6
	c0-7.7-1.2-13.1-3.5-16.2c-2.3-3.1-4.9-5.1-7.7-6c-1-0.3-2-0.4-3.1-0.5c-1-0.1-2-0.2-2.9-0.2H253.6L253.6,26.8z M238.1,85.9V14.4
	h33.2c9.5,0.1,16.4,2.5,20.8,7.2c4.4,4.7,7.3,10,8.6,15.8c0.5,1.9,0.9,3.8,1,5.7c0.2,1.9,0.3,3.7,0.3,5.4c0,1.8-0.1,3.7-0.3,5.6
	c-0.2,2-0.5,3.9-0.9,5.9c-1.4,6.4-4.5,12.3-9,17.7c-4.6,5.4-11.6,8.1-21.2,8.1H238.1L238.1,85.9z M207.1,53.9h-29.4v32.1h-15.7V14.4
	h15.7v27.1h29.4V14.4h15.7v71.5h-15.7V53.9L207.1,53.9z"/>
<path class="st1" d="M753.9,62.4H769c0,0.7,0.1,1.5,0.2,2.3c0.2,0.8,0.4,1.6,0.8,2.4c0.8,1.7,2.4,3.3,4.6,4.8
	c2.2,1.5,5.7,2.2,10.4,2.2c0.3,0,0.7,0,1.1,0c0.4,0,0.7,0,1.1-0.1c3.4-0.1,6.5-0.8,9.3-2.1c2.8-1.3,4.2-3.6,4.2-7
	c0-2.6-1.1-4.5-3.4-5.6c-2.2-1.1-5.2-2.1-8.8-2.9c-0.3-0.1-0.5-0.1-0.8-0.2c-0.3-0.1-0.5-0.1-0.8-0.2l-8.1-1.9
	c-0.1,0.1-0.1,0.1-0.2,0.1c0,0-0.1,0-0.1-0.1c-6.1-1.3-11.5-3.2-16.4-5.6c-4.9-2.4-7.3-7.5-7.3-15.3c0-1.2,0.1-2.5,0.4-3.9
	c0.3-1.4,0.7-2.9,1.3-4.4c1.5-3.4,4.2-6.5,8.3-9.4c4.1-2.9,10.4-4.3,18.9-4.3c8.4,0,14.7,1.5,18.9,4.6c4.3,3.1,7.2,6.5,8.7,10.2
	c0.6,1.5,1,2.9,1.3,4.3c0.3,1.4,0.4,2.7,0.4,3.9l-15.1-0.1c-0.1-0.5-0.2-1.2-0.4-2c-0.2-0.8-0.5-1.7-1-2.5c-0.8-1.5-2.2-2.9-4.4-4.2
	c-2.1-1.3-5.4-1.9-9.7-1.9c-0.4,0-0.9,0-1.3,0c-0.5,0-0.9,0.1-1.3,0.2c-2.6,0.3-5,1.1-7.2,2.3c-2.1,1.3-3.2,3.3-3.2,6
	c0,2.1,0.5,3.6,1.6,4.6c1.1,1,2.3,1.7,3.7,2.1c0.4,0.2,0.9,0.4,1.3,0.5c0.5,0.1,0.9,0.2,1.3,0.3l18.4,4.2c5.1,1.3,9.7,3.2,13.7,5.8
	c4,2.6,6,7.1,6,13.5c0,6.2-1.6,11-4.9,14.2c-3.3,3.3-6.9,5.5-10.8,6.9c-2.8,0.9-5.5,1.5-8.1,1.8c-2.6,0.3-4.5,0.4-5.9,0.4
	c-9.7,0-16.9-1.6-21.4-4.7c-4.6-3.1-7.6-6.6-9.1-10.4c-0.6-1.5-1-3.1-1.3-4.6C754.1,65.2,753.9,63.8,753.9,62.4L753.9,62.4
	L753.9,62.4z M743.2,12.9v12.7h-39.9v15H740v12.6h-36.7v18.5H745v12.6h-57.1V12.9H743.2L743.2,12.9z M639.5,12.9v58.6H677v12.9
	h-53.2V12.9H639.5L639.5,12.9z M577.9,29.1l-9.6,28.3h19.2l-9.3-28.3H577.9L577.9,29.1z M564.1,69.7l-5.2,14.7h-16.6l26.8-71.5h18.2
	l26.6,71.5h-17.1l-4.9-14.7H564.1L564.1,69.7z M474.3,62.4h15.1c0,0.7,0.1,1.5,0.3,2.3c0.2,0.8,0.4,1.6,0.8,2.4
	c0.9,1.7,2.4,3.3,4.6,4.8c2.2,1.5,5.7,2.2,10.4,2.2c0.3,0,0.7,0,1.1,0c0.4,0,0.7,0,1.1-0.1c3.4-0.1,6.5-0.8,9.3-2.1
	c2.8-1.3,4.2-3.6,4.2-7c0-2.6-1.1-4.5-3.4-5.6c-2.3-1.1-5.2-2.1-8.8-2.9c-0.3-0.1-0.5-0.1-0.8-0.2c-0.3-0.1-0.5-0.1-0.8-0.2
	l-8.1-1.9c-0.1,0.1-0.1,0.1-0.2,0.1c0,0-0.1,0-0.1-0.1c-6-1.3-11.5-3.2-16.4-5.6c-4.8-2.4-7.3-7.5-7.3-15.3c0-1.2,0.1-2.5,0.4-3.9
	c0.3-1.4,0.7-2.9,1.3-4.4c1.4-3.4,4.2-6.5,8.3-9.4c4.1-2.9,10.4-4.3,18.9-4.3c8.3,0,14.7,1.5,18.9,4.6c4.3,3.1,7.2,6.5,8.7,10.2
	c0.6,1.5,1,2.9,1.3,4.3c0.3,1.4,0.4,2.7,0.4,3.9l-15.1-0.1c-0.1-0.5-0.2-1.2-0.4-2c-0.2-0.8-0.5-1.7-1-2.5c-0.8-1.5-2.2-2.9-4.4-4.2
	c-2.1-1.3-5.4-1.9-9.7-1.9c-0.4,0-0.9,0-1.3,0c-0.5,0-0.9,0.1-1.3,0.2c-2.6,0.3-5,1.1-7.2,2.3c-2.1,1.3-3.2,3.3-3.2,6
	c0,2.1,0.5,3.6,1.6,4.6c1.1,1,2.3,1.7,3.6,2.1c0.4,0.2,0.9,0.4,1.3,0.5c0.5,0.1,0.9,0.2,1.3,0.3l18.4,4.2c5.1,1.3,9.7,3.2,13.7,5.8
	c4,2.6,6,7.1,6,13.5c0,6.2-1.6,11-4.9,14.2c-3.3,3.3-6.9,5.5-10.8,6.9c-2.8,0.9-5.5,1.5-8.1,1.8c-2.6,0.3-4.5,0.4-5.9,0.4
	c-9.7,0-16.9-1.6-21.4-4.7c-4.6-3.1-7.6-6.6-9.1-10.4c-0.6-1.5-1-3.1-1.3-4.6C474.5,65.2,474.3,63.8,474.3,62.4L474.3,62.4
	L474.3,62.4z M437.1,36.3h-15.7c-0.2-0.6-0.4-1.3-0.7-2.2c-0.3-0.9-0.7-1.7-1.2-2.6c-1-1.9-2.6-3.6-4.8-5.1
	c-2.2-1.6-5.5-2.3-9.9-2.3c-0.9,0-1.8,0.1-2.8,0.2c-1,0.1-2,0.4-3,0.7c-3.2,1.1-6.2,3.4-8.9,7c-2.7,3.6-4,9.3-4,17.1
	c0,6.4,1.4,12.1,4.3,17c2.9,4.9,7.7,7.4,14.4,7.4c4.3,0,8-1.1,10.9-3.4c2.9-2.3,4.8-5.6,5.8-10l15.7-0.1
	c-1.6,7.8-5.1,14.2-10.5,19.1c-5.4,4.9-12.8,7.3-22.3,7.3c-10.1,0-18.3-3.2-24.7-9.5c-6.4-6.3-9.7-15.6-9.7-28
	c0-12.5,3.3-21.9,10-28.2c6.7-6.3,14.9-9.5,24.6-9.5c8.8,0,15.6,1.9,20.5,5.6c4.9,3.7,8.3,7.8,10.2,12.3c0.5,1.3,0.9,2.5,1.2,3.7
	C436.9,34,437.1,35.2,437.1,36.3L437.1,36.3L437.1,36.3z M325,54.4v30.1h-15.7V12.9h53.6v12.7H325v16.1h33.1v12.7H325L325,54.4z
	 M249.1,25.3v46.8h15.3c6.1,0.1,10.5-2.3,13-7c2.5-4.7,3.9-9.9,4-15.6c0-0.3,0-0.5,0-0.8c0-0.2,0-0.4,0-0.6c0-7.7-1.2-13.1-3.5-16.2
	c-2.3-3.1-4.9-5.1-7.7-6c-1-0.3-2-0.4-3.1-0.5c-1-0.1-2-0.2-2.9-0.2H249.1L249.1,25.3z M233.6,84.4V12.9h33.2
	c9.5,0.1,16.4,2.5,20.8,7.2c4.4,4.7,7.3,10,8.6,15.8c0.5,1.9,0.9,3.8,1,5.7c0.2,1.9,0.3,3.7,0.3,5.4c0,1.8-0.1,3.7-0.3,5.6
	c-0.2,2-0.5,3.9-0.9,5.9c-1.4,6.4-4.5,12.3-9,17.7c-4.6,5.4-11.6,8.1-21.2,8.1H233.6L233.6,84.4z M202.6,52.4h-29.4v32.1h-15.7V12.9
	h15.7V40h29.4V12.9h15.7v71.5h-15.7V52.4L202.6,52.4z"/>
<polygon class="st1" points="63.9,13.2 74.4,23.3 46,50.5 24.5,50.5 63.9,13.2 "/>
<polygon class="st0" points="63.9,87.7 74.4,77.6 46,50.5 24.5,50.5 63.9,87.7 "/>
<polygon class="st0" points="84.9,13.2 74.4,23.3 102.8,50.5 124.3,50.5 84.9,13.2 "/>
<polygon class="st1" points="84.9,87.7 74.4,77.6 102.8,50.5 124.3,50.5 84.9,87.7 "/>
</svg>
